<svg width="20" height="20" viewBox="0 0 20 20" fill="none" xmlns="http://www.w3.org/2000/svg">
<path d="M0.995117 12.9009C0.277678 13.3151 0.0318655 14.2325 0.446079 14.95C0.860293 15.6674 1.77768 15.9132 2.49512 15.499L0.995117 12.9009ZM19.0659 5.42454C19.2803 4.62434 18.8054 3.80184 18.0052 3.58743L4.96523 0.0933693C4.16503 -0.121043 3.34253 0.35383 3.12811 1.15403C2.9137 1.95423 3.38857 2.77673 4.18877 2.99115L15.7799 6.09698L12.6741 17.6881C12.4596 18.4883 12.9345 19.3108 13.7347 19.5252C14.5349 19.7396 15.3574 19.2647 15.5718 18.4645L19.0659 5.42454ZM2.49512 15.499L18.367 6.33535L16.867 3.73728L0.995117 12.9009L2.49512 15.499Z" fill="#1088E1"/>
</svg>
