<svg width="20" height="20" viewBox="0 0 20 20" fill="none" xmlns="http://www.w3.org/2000/svg">
<path d="M0.995117 12.901C0.277678 13.3152 0.0318655 14.2326 0.446079 14.95C0.860293 15.6675 1.77768 15.9133 2.49512 15.4991L0.995117 12.901ZM19.0659 5.4246C19.2803 4.62441 18.8054 3.8019 18.0052 3.58749L4.96523 0.0934303C4.16503 -0.120982 3.34253 0.353891 3.12811 1.15409C2.9137 1.95429 3.38857 2.7768 4.18877 2.99121L15.7799 6.09704L12.6741 17.6881C12.4596 18.4883 12.9345 19.3109 13.7347 19.5253C14.5349 19.7397 15.3574 19.2648 15.5718 18.4646L19.0659 5.4246ZM2.49512 15.4991L18.367 6.33541L16.867 3.73734L0.995117 12.901L2.49512 15.4991Z" fill="white"/>
</svg>
