<svg width="37" height="37" viewBox="0 0 37 37" fill="none" xmlns="http://www.w3.org/2000/svg">
<g clip-path="url(#clip0_1_761)">
<path d="M12.5337 24.4662C11.2742 23.2067 11.2742 21.159 12.5337 19.8995L15.48 16.9532L14.0805 15.5537L11.1343 18.5C9.10133 20.5329 9.10133 23.8328 11.1343 25.8657C13.1672 27.8986 16.467 27.8986 18.5 25.8657L21.4462 22.9194L20.0468 21.5199L17.1005 24.4662C15.8409 25.7258 13.7933 25.7258 12.5337 24.4662ZM16.2903 22.1829L22.1828 16.2903L20.7097 14.8172L14.8171 20.7097L16.2903 22.1829ZM18.5 11.1343L15.5537 14.0806L16.9532 15.4801L19.8994 12.5338C21.159 11.2743 23.2066 11.2743 24.4662 12.5338C25.7257 13.7933 25.7257 15.841 24.4662 17.1005L21.5199 20.0468L22.9194 21.4463L25.8657 18.5C27.8986 16.4671 27.8986 13.1673 25.8657 11.1343C23.8327 9.10139 20.5329 9.10139 18.5 11.1343Z" fill="white"/>
</g>
<defs>
<clipPath id="clip0_1_761">
<rect width="25" height="25" fill="white" transform="translate(0.822266 18.5) rotate(-45)"/>
</clipPath>
</defs>
</svg>
