<svg width="14" height="11" viewBox="0 0 14 11" fill="none" xmlns="http://www.w3.org/2000/svg">
<path d="M13.2502 6.14003C13.6534 6.14003 13.9802 5.8132 13.9802 5.41003C13.9802 5.00687 13.6534 4.68003 13.2502 4.68003L13.2502 6.14003ZM0.324056 4.89384C0.0389737 5.17893 0.0389736 5.64114 0.324056 5.92622L4.96975 10.5719C5.25483 10.857 5.71704 10.857 6.00212 10.5719C6.28721 10.2868 6.28721 9.82462 6.00212 9.53954L1.87262 5.41003L6.00212 1.28053C6.28721 0.995447 6.28721 0.533237 6.00212 0.248154C5.71704 -0.0369286 5.25483 -0.0369287 4.96975 0.248154L0.324056 4.89384ZM13.2502 4.68003L0.840244 4.68003L0.840244 6.14003L13.2502 6.14003L13.2502 4.68003Z" fill="white"/>
</svg>
